<svg width="517" height="463" viewBox="0 0 517 463" fill="none" xmlns="http://www.w3.org/2000/svg">
<g opacity="0.33" filter="url(#filter0_f_210_538)">
<path d="M285.756 383.956H230.455L230.483 358.001H285.728L285.756 383.956Z" fill="#F58A3A" stroke="white" stroke-width="2"/>
<path d="M285.716 345.966H230.495L230.656 191.704H285.555L285.716 345.966Z" fill="#F58A3A" stroke="white" stroke-width="2"/>
<path d="M237.176 179.669L258.105 154.054L279.035 179.669H237.176Z" fill="#F58A3A" stroke="white" stroke-width="2"/>
<path d="M228.189 97.0871V105.122H227.547H227.443L227.34 105.144C203.652 110.146 182.103 120.955 165.27 136.3C148.685 151.418 137.364 170.315 132.629 190.807L123.244 189.25C127.248 171.948 135.661 155.624 147.885 141.477C160.352 127.05 176.456 115.268 194.979 107.036L194.573 105.122H114.525V97.0871H225.723H226.135H226.226H226.493H228.189ZM350.116 136.538C333.306 121.117 311.744 110.243 288.021 105.2V105.198L287.26 105.035L287.988 102.293L288.021 102.167V102.036V97.0871H288.6H288.859H288.959H289.361H401.686V105.122H320.538L320.133 107.036C338.789 115.32 354.989 127.207 367.488 141.77C379.746 156.053 388.124 172.534 392.016 189.984L382.62 191.489C378.022 170.851 366.742 151.79 350.116 136.538Z" fill="#F58A3A" stroke="white" stroke-width="2"/>
<path d="M371.465 229.845V197.438H409.121V229.845H371.465Z" fill="#F58A3A" stroke="white" stroke-width="2"/>
<path d="M106.264 229.845V197.438H143.92V229.845H106.264Z" fill="#F58A3A" stroke="white" stroke-width="2"/>
<path d="M269.756 113.489C266.153 115.578 261.904 116.699 257.548 116.699C251.705 116.693 246.127 114.676 242.032 111.123C237.943 107.575 235.675 102.797 235.669 97.8489C235.669 94.1554 236.93 90.5304 239.317 87.4319C241.705 84.331 245.115 81.895 249.13 80.452C253.145 79.009 257.57 78.6299 261.84 79.3668C266.11 80.1038 270.016 81.9203 273.069 84.5691C276.121 87.2168 278.179 90.5721 279.011 94.2006C279.842 97.8269 279.418 101.588 277.781 105.015C276.144 108.445 273.359 111.4 269.756 113.489Z" fill="#F58A3A" stroke="white" stroke-width="2"/>
<path d="M79 112.29V88.4854H105.916V112.29H79Z" fill="#F58A3A" stroke="white" stroke-width="2"/>
<path d="M410.295 112.29V88.4854H437.211V112.29H410.295Z" fill="#F58A3A" stroke="white" stroke-width="2"/>
</g>
<mask id="mask0_210_538" style="mask-type:alpha" maskUnits="userSpaceOnUse" x="78" y="78" width="361" height="307">
<path d="M285.756 383.956H230.455L230.483 358.001H285.728L285.756 383.956Z" stroke="black" stroke-width="2"/>
<path d="M285.716 345.966H230.495L230.656 191.704H285.555L285.716 345.966Z" stroke="black" stroke-width="2"/>
<path d="M237.176 179.669L258.105 154.054L279.035 179.669H237.176Z" stroke="black" stroke-width="2"/>
<path d="M228.189 97.0871V105.122H227.547H227.443L227.34 105.144C203.652 110.146 182.103 120.955 165.27 136.3C148.685 151.418 137.364 170.315 132.629 190.807L123.244 189.25C127.248 171.948 135.661 155.624 147.885 141.477C160.352 127.05 176.456 115.268 194.979 107.036L194.573 105.122H114.525V97.0871H225.723H226.135H226.226H226.493H228.189ZM350.116 136.538C333.306 121.117 311.744 110.243 288.021 105.2V105.198L287.26 105.035L287.988 102.293L288.021 102.167V102.036V97.0871H288.6H288.859H288.959H289.361H401.686V105.122H320.538L320.133 107.036C338.789 115.32 354.989 127.207 367.488 141.77C379.746 156.053 388.124 172.534 392.016 189.984L382.62 191.489C378.022 170.851 366.742 151.79 350.116 136.538Z" stroke="black" stroke-width="2"/>
<path d="M371.465 229.845V197.438H409.121V229.845H371.465Z" stroke="black" stroke-width="2"/>
<path d="M106.264 229.845V197.438H143.92V229.845H106.264Z" stroke="black" stroke-width="2"/>
<path d="M269.756 113.489C266.153 115.578 261.904 116.699 257.548 116.699C251.705 116.693 246.127 114.676 242.032 111.123C237.943 107.575 235.675 102.797 235.669 97.8489C235.669 94.1554 236.93 90.5304 239.317 87.4319C241.705 84.331 245.115 81.895 249.13 80.452C253.145 79.009 257.57 78.6299 261.84 79.3668C266.11 80.1038 270.016 81.9203 273.069 84.5691C276.121 87.2168 278.179 90.5721 279.011 94.2006C279.842 97.8269 279.418 101.588 277.781 105.015C276.144 108.445 273.359 111.4 269.756 113.489Z" stroke="black" stroke-width="2"/>
<path d="M79 112.29V88.4854H105.916V112.29H79Z" stroke="black" stroke-width="2"/>
<path d="M410.295 112.29V88.4854H437.211V112.29H410.295Z" stroke="black" stroke-width="2"/>
</mask>
<g mask="url(#mask0_210_538)">
<g filter="url(#filter1_f_210_538)">
<rect x="224" y="-484" width="630" height="753" fill="#0E1623"/>
</g>
<path d="M229.484 357.001L229.454 384.956H286.757L286.727 357.001H229.484Z" fill="#F58A3A"/>
<path d="M229.494 346.966H286.717L286.554 190.704H229.657L229.494 346.966Z" fill="#F58A3A"/>
<path d="M235.068 180.669H281.143L258.105 152.474L235.068 180.669Z" fill="#F58A3A"/>
<path d="M226.474 96.0154C226.36 96.0383 226.248 96.0663 226.135 96.0871H113.525V106.122H194.573C175.924 114.41 159.698 126.278 147.128 140.823C134.559 155.369 125.977 172.209 122.035 190.063L133.396 191.948C137.953 171.316 149.251 152.256 165.944 137.039C182.637 121.822 204.021 111.09 227.547 106.122H229.189V96.0871H226.493L226.474 96.0154ZM393.218 190.805C389.392 172.801 380.849 155.802 368.247 141.119C355.645 126.436 339.322 114.462 320.538 106.122H402.686V96.0871H288.959C288.845 96.0641 288.733 96.0362 288.62 96.0154L288.6 96.0871H287.021V102.036L286.025 105.792C286.36 105.858 286.686 105.935 287.021 106.007V106.122H287.547C311.211 111.105 332.708 121.925 349.44 137.275C366.173 152.625 377.427 171.849 381.844 192.626L393.218 190.805Z" fill="#F58A3A"/>
<path d="M410.121 196.438H370.465V230.845H410.121V196.438Z" fill="#F58A3A"/>
<path d="M144.92 196.438H105.264V230.845H144.92V196.438Z" fill="#F58A3A"/>
<path d="M257.547 117.699C262.072 117.699 266.495 116.535 270.257 114.354C274.02 112.173 276.952 109.073 278.684 105.446C280.415 101.819 280.868 97.8275 279.986 93.9771C279.103 90.1267 276.924 86.5898 273.724 83.8138C270.525 81.0378 266.448 79.1473 262.01 78.3814C257.572 77.6155 252.972 78.0086 248.792 79.511C244.611 81.0133 241.038 83.5575 238.524 86.8217C236.01 90.086 234.669 93.9237 234.669 97.8495C234.675 103.112 237.088 108.158 241.377 111.879C245.666 115.6 251.481 117.693 257.547 117.699Z" fill="#F58A3A"/>
<path d="M106.916 87.4854H78V113.29H106.916V87.4854Z" fill="#F58A3A"/>
<path d="M438.211 87.4854H409.295V113.29H438.211V87.4854Z" fill="#F58A3A"/>
</g>
<defs>
<filter id="filter0_f_210_538" x="0" y="0" width="516.211" height="462.956" filterUnits="userSpaceOnUse" color-interpolation-filters="sRGB">
<feFlood flood-opacity="0" result="BackgroundImageFix"/>
<feBlend mode="normal" in="SourceGraphic" in2="BackgroundImageFix" result="shape"/>
<feGaussianBlur stdDeviation="39" result="effect1_foregroundBlur_210_538"/>
</filter>
<filter id="filter1_f_210_538" x="-10" y="-718" width="1098" height="1221" filterUnits="userSpaceOnUse" color-interpolation-filters="sRGB">
<feFlood flood-opacity="0" result="BackgroundImageFix"/>
<feBlend mode="normal" in="SourceGraphic" in2="BackgroundImageFix" result="shape"/>
<feGaussianBlur stdDeviation="117" result="effect1_foregroundBlur_210_538"/>
</filter>
</defs>
</svg>
