<svg width="47" height="46" viewBox="0 0 47 46" fill="none" xmlns="http://www.w3.org/2000/svg">
<path d="M38.6129 45.9817C37.0432 45.9817 35.8659 45.9817 35.0811 45.9817C28.943 45.9817 19.7359 45.9817 7.45972 45.9817C3.34632 45.9817 0 42.6424 0 38.5374V7.46264C0 3.35756 3.34632 0.0183258 7.45972 0.0183258H38.6129C42.7252 0.0183258 46.0715 3.35756 46.0715 7.46264V38.5385C46.0715 42.6436 42.7252 45.9817 38.6129 45.9817ZM16.2306 34.8381L16.7616 35.1279C22.0235 37.9997 28.6182 37.0994 32.9222 32.7954C38.244 27.4735 38.244 18.8451 32.9222 13.5232C27.6003 8.20138 18.9717 8.20138 13.6498 13.5232C9.34583 17.8272 8.44562 24.4218 11.3173 29.6837L11.6074 30.2149L10.1859 34.8815C10.1139 35.1182 10.1172 35.3713 10.1958 35.6059C10.4044 36.2286 11.0784 36.5643 11.7011 36.3556L16.2306 34.8381ZM16.0044 28.1978C15.4421 27.823 15.2902 27.0633 15.665 26.501L20.2261 19.6595C20.3278 19.5069 20.4525 19.371 20.5957 19.2564C21.3648 18.6407 22.4873 18.7651 23.103 19.5342L24.8528 21.7201C24.8664 21.7371 24.8809 21.7534 24.8963 21.7689C25.1285 22.0011 25.5049 22.0012 25.7371 21.769L29.2928 18.2147C29.7055 17.8021 30.3518 17.7381 30.8373 18.0618C31.4 18.4369 31.5521 19.1971 31.177 19.7598L26.6157 26.6021C26.5138 26.7549 26.3887 26.8911 26.2452 27.0058C25.4757 27.621 24.3534 27.496 23.7382 26.7265L21.9884 24.538C21.9746 24.5207 21.9598 24.5043 21.9443 24.4887C21.712 24.2566 21.3356 24.2566 21.1035 24.4889L17.5487 28.0448C17.1362 28.4574 16.4898 28.5214 16.0044 28.1978Z" fill="url(#paint0_linear_1_8)"/>
<defs>
<linearGradient id="paint0_linear_1_8" x1="-20.8108" y1="-7.7114" x2="76.7027" y2="64.2345" gradientUnits="userSpaceOnUse">
<stop stop-color="#E657FD"/>
<stop offset="1" stop-color="#0F1971"/>
</linearGradient>
</defs>
</svg>
