<svg width="60" height="72" viewBox="0 0 60 72" fill="none" xmlns="http://www.w3.org/2000/svg">
<path d="M29.709 50.4315C29.709 50.4315 14.1246 34.9938 9.27052 30.2887C4.41642 25.5836 3.83206 14.702 9.27052 8.8212C14.709 2.9404 39.1215 0 39.1215 0L60 20.7318L29.709 50.4315Z" fill="#F58A3A"/>
<path d="M59.2881 20.7295L29.7107 49.7295L29.3817 49.4036C28.946 48.9723 28.3183 48.3509 27.5498 47.5904C26.0128 46.0695 23.913 43.9927 21.6614 41.7688C17.1591 37.3218 12.0476 32.2842 9.61852 29.9297C7.31387 27.6958 5.98218 23.9422 5.91073 19.9868C5.8394 16.0378 7.02677 11.9839 9.63761 9.16068C10.909 7.78591 13.3527 6.53225 16.3989 5.4322C19.4229 4.34019 22.9603 3.42679 26.3414 2.69395C29.7202 1.96159 32.9314 1.41199 35.2986 1.04544C36.4819 0.862206 37.4536 0.724824 38.1291 0.633304C38.4668 0.587545 38.7304 0.553258 38.9093 0.530441C38.9205 0.529011 38.9314 0.527626 38.9419 0.526287L59.2881 20.7295Z" stroke="#F58A3A" stroke-opacity="0.33"/>
<path d="M30.2864 20.6131C30.2864 20.6131 45.8847 36.0508 50.7248 40.7559C55.5649 45.461 56.1656 56.3425 50.7248 62.2233C45.284 68.1041 20.8785 71.0445 20.8785 71.0445L0 50.3127L30.2864 20.6131Z" fill="#4D4C4D"/>
<path d="M21.0581 70.5182L0.711855 50.315L30.2848 21.3149L30.6144 21.641C31.0504 22.0724 31.6786 22.6938 32.4477 23.4543C33.9857 24.9751 36.0868 27.052 38.3392 29.2758C42.8434 33.723 47.9545 38.7602 50.3763 41.1144C52.6745 43.3485 54.0068 47.1024 54.0802 51.058C54.1536 55.0071 52.9696 59.0608 50.3578 61.8838C49.0858 63.2586 46.6421 64.5123 43.5961 65.6123C40.5725 66.7044 37.0357 67.6178 33.6554 68.3506C30.2773 69.083 27.0669 69.6326 24.7003 69.9991C23.5173 70.1823 22.5459 70.3197 21.8706 70.4112C21.533 70.457 21.2695 70.4913 21.0906 70.5141C21.0794 70.5155 21.0686 70.5169 21.0581 70.5182Z" stroke="#F58A3A" stroke-opacity="0.33"/>
<path d="M14.851 35.7504L0 50.3127L29.7113 50.4315L14.851 35.7504Z" fill="#333333"/>
<path d="M28.4888 49.9266L1.2191 49.8176L14.8497 36.452L28.4888 49.9266Z" stroke="#F58A3A" stroke-opacity="0.33"/>
<path d="M45.149 35.2941L60 20.7318L30.2864 20.6131L45.149 35.2941Z" fill="#DF772F"/>
<path d="M45.1503 34.5926L31.509 21.118L58.7809 21.2269L45.1503 34.5926Z" stroke="#F58A3A" stroke-opacity="0.33"/>
</svg>
